# xmcd
#
# Track frame offsets:
#   150
#   18045
#   34952
#   52407
#   68622
#   87830
#   101465
#   116625
#   131647
#   147005
#   164077
#   176250
#   190285
#   206085
#
# Disc length: 2937 seconds
#
# Revision: 0
# Processed by: cddbd v1.5.1PL0 Copyright (c) Steve Scherf et al.
# Submitted via: uFREEDB ActiveX Control 1.5
#
DISCID=c50b770e
DTITLE=Allan and Alladin - Allan and Allad
DYEAR=1900
DGENRE=Country
TTITLE0=Quando você  partir
TTITLE1=Coisas de inverno
TTITLE2=Canção da Família
TTITLE3=Outra Chance
TTITLE4=Ave Maria pra minha mãe
TTITLE5=Minha Vida de peão
TTITLE6=Estarei te esperando
TTITLE7=Antes de ir
TTITLE8=Quem sou eu sem ti
TTITLE9=Não me deixe só
TTITLE10=Ansiedade
TTITLE11=Até mais ver
TTITLE12=Eu vim pra te amar
TTITLE13=Te liguei
EXTD=
EXTT0=
EXTT1=
EXTT2=
EXTT3=
EXTT4=
EXTT5=
EXTT6=
EXTT7=
EXTT8=
EXTT9=
EXTT10=
EXTT11=
EXTT12=
EXTT13=
PLAYORDER=
